# This file uses centimeters as units for non-parametric coordinates.

mtllib Background.mtl
g default
v -11.000000 -5.000000 0.500000
v 11.000000 -5.000000 0.500000
v -11.000000 5.000000 0.500000
v 11.000000 5.000000 0.500000
v -11.000000 5.000000 -0.500000
v 11.000000 5.000000 -0.500000
v -11.000000 -5.000000 -0.500000
v 11.000000 -5.000000 -0.500000
vt 0.105562 0.068977
vt 0.105557 0.000000
vt 0.834652 0.000098
vt 0.834657 0.069075
vt 0.105563 0.137955
vt 0.105557 0.068978
vt 0.834652 0.069076
vt 0.834657 0.138053
vt 0.000732 0.992927
vt 0.000864 0.007151
vt 0.050447 0.007073
vt 0.050316 0.992849
vt 0.052764 0.986070
vt 0.052884 0.007150
vt 0.102815 0.007073
vt 0.102695 0.985992
vt 0.119604 0.167899
vt 0.965575 0.167978
vt 0.965597 0.571518
vt 0.119626 0.571439
vt 0.961328 0.992363
vt 0.117745 0.992258
vt 0.117731 0.587575
vt 0.961314 0.587680
vn 0.000000 0.000000 1.000000
vn 0.000000 0.000000 1.000000
vn 0.000000 0.000000 1.000000
vn 0.000000 0.000000 1.000000
vn 0.000000 1.000000 0.000000
vn 0.000000 1.000000 0.000000
vn 0.000000 1.000000 0.000000
vn 0.000000 1.000000 0.000000
vn 0.000000 0.000000 -1.000000
vn 0.000000 0.000000 -1.000000
vn 0.000000 0.000000 -1.000000
vn 0.000000 0.000000 -1.000000
vn 0.000000 -1.000000 0.000000
vn 0.000000 -1.000000 0.000000
vn 0.000000 -1.000000 0.000000
vn 0.000000 -1.000000 0.000000
vn 1.000000 0.000000 0.000000
vn 1.000000 0.000000 0.000000
vn 1.000000 0.000000 0.000000
vn 1.000000 0.000000 0.000000
vn -1.000000 0.000000 0.000000
vn -1.000000 0.000000 0.000000
vn -1.000000 0.000000 0.000000
vn -1.000000 0.000000 0.000000
s off
g pCube1
usemtl initialShadingGroup
f 1/17/1 2/18/2 4/19/3 3/20/4
f 3/9/5 4/10/6 6/11/7 5/12/8
f 5/21/9 6/22/10 8/23/11 7/24/12
f 7/13/13 8/14/14 2/15/15 1/16/16
f 2/1/17 8/2/18 6/3/19 4/4/20
f 7/5/21 1/6/22 3/7/23 5/8/24
